<svg xmlns="http://www.w3.org/2000/svg" version="1.1" xmlns:xlink="http://www.w3.org/1999/xlink" xmlns:svgjs="http://svgjs.dev/svgjs" width="1000" height="1000" viewBox="0 0 1000 1000"><rect width="1000" height="1000" fill="#ffffff"></rect><g transform="matrix(0.7,0,0,0.7,149.575763433271,348.9484951322172)"><svg viewBox="0 0 396 171" data-background-color="#ffffff" preserveAspectRatio="xMidYMid meet" height="431" width="1000" xmlns="http://www.w3.org/2000/svg" xmlns:xlink="http://www.w3.org/1999/xlink"><g id="tight-bounds" transform="matrix(1,0,0,1,0.23999668632097837,0.11421058134187945)"><svg viewBox="0 0 395.52 170.7715764705882" height="170.7715764705882" width="395.52"><g><svg viewBox="0 0 395.52 170.7715764705882" height="170.7715764705882" width="395.52"><g><svg viewBox="0 0 395.52 170.7715764705882" height="170.7715764705882" width="395.52"><g id="textblocktransform"><svg viewBox="0 0 395.52 170.7715764705882" height="170.7715764705882" width="395.52" id="textblock"><g><svg viewBox="0 0 395.52 170.7715764705882" height="170.7715764705882" width="395.52"><g transform="matrix(1,0,0,1,0,0)"><svg width="395.52" viewBox="0.5 -39.25 127.48999786376953 55.04999923706055" height="170.7715764705882" data-palette-color="#89939e"><path d="M51.9-9.6L51.9-9.6Q51.9-6.75 49.85-4.3L49.85-4.3Q46.95-0.8 42.1 0.75L42.1 0.75Q38.5 1.9 35.1 1.9L35.1 1.9Q33.85 1.9 32.65 1.75L32.65 1.75Q24.8 0.75 19.35-1.7L19.35-1.7Q14.4 1.95 8.9 1.95L8.9 1.95Q2.4 1.95 0.85-1.65L0.85-1.65Q0.5-2.5 0.5-3.65 0.5-4.8 1.65-6.1L1.65-6.1Q3.45-8.1 6.65-8.1L6.65-8.1Q8.75-8.1 10.45-7.5 12.15-6.9 14.65-5.55 17.15-4.2 18.35-3.6L18.35-3.6Q20.55-5.75 22.9-9.58 25.25-13.4 27.03-17.07 28.8-20.75 31.55-25.25 34.3-29.75 37.15-32.9L37.15-32.9 40-36.15Q36.05-36.85 31.3-36.85 26.55-36.85 20.85-35.6L20.85-35.6Q13.05-33.95 8.85-28.9L8.85-28.9Q6.3-25.85 6.3-23.1L6.3-23.1Q6.3-19.45 9.85-18.35L9.85-18.35Q11.1-18 12.05-18 13-18 14.25-18.35 15.5-18.7 16.68-19.83 17.85-20.95 18.38-22 18.9-23.05 18.9-23.58 18.9-24.1 19.4-24.1L19.4-24.1Q19.9-24.05 19.95-23.4L19.95-23.4 19.95-23.35Q19.4-19.7 16.05-17.8L16.05-17.8Q14-16.7 11.95-16.7L11.95-16.7 9.35-17.15Q4.05-19 4.05-24.05L4.05-24.05Q4.05-27.5 7.1-30.85L7.1-30.85Q12-36.35 21.5-37.7L21.5-37.7Q26.1-38.35 31.08-38.35 36.05-38.35 41.2-37.25L41.2-37.25Q42.6-38.45 43.65-38.85 44.7-39.25 44.88-39.25 45.05-39.25 45.1-39.2L45.1-39.2Q45.4-39.2 45.23-38.88 45.05-38.55 44.13-37.95 43.2-37.35 43-36.85L43-36.85Q49.8-35.1 52.8-31.85L52.8-31.85Q54.4-30.05 54.4-28.18 54.4-26.3 53.3-24.4L53.3-24.4Q51.85-21.9 48.6-20.63 45.35-19.35 42.05-19.2L42.05-19.2Q45.25-18.2 48-16.4L48-16.4Q51.9-13.85 51.9-9.6ZM34.4 0.5L34.4 0.5Q40 0.5 43.9-2.7L43.9-2.7Q48.15-6.1 48.15-10.05L48.15-10.05Q48.15-14.15 43.8-16.25L43.8-16.25Q42.2-17 39.88-17.73 37.55-18.45 36.13-18.95 34.7-19.45 34.5-19.9L34.5-19.9Q34.5-20.85 35.95-20.9L35.95-20.9Q36.9-20.9 38.85-20.75 40.8-20.6 42.2-20.63 43.6-20.65 45.58-21.63 47.55-22.6 48.95-24.15L48.95-24.15Q51.2-26.65 51.2-28.85L51.2-28.85Q51.2-33.55 42.4-35.6L42.4-35.6Q39.75-31.95 32.9-20.18 26.05-8.4 22.35-4.4L22.35-4.4 20.45-2.6Q26.1-0.25 32.6 0.4L32.6 0.4Q33.55 0.5 34.4 0.5ZM17.25-2.65L17.25-2.65Q11.4-5.45 9.85-6 8.3-6.55 6.78-6.55 5.25-6.55 4.35-5.48 3.45-4.4 3.45-3.53 3.45-2.65 3.85-1.85L3.85-1.85Q4.95 0.4 8.45 0.4L8.45 0.4Q13.2 0.4 17.25-2.65ZM57.65-9.65Q57.6-9.45 57.2-8.28 56.8-7.1 56.52-6.03 56.25-4.95 56.25-3.88 56.25-2.8 56.75-1.88 57.25-0.95 58.35-0.95L58.35-0.95Q60.15-0.95 61.85-3.38 63.55-5.8 65.45-9.55L65.45-9.55Q65.85-10.25 66.2-10.1L66.2-10.1Q66.45-9.9 66.3-9.58 66.15-9.25 65.67-8.18 65.2-7.1 64.97-6.68 64.75-6.25 64.17-5.18 63.6-4.1 63.17-3.58 62.75-3.05 62.02-2.23 61.3-1.4 60.65-1L60.65-1Q58.9 0.1 57.35 0.1 55.8 0.1 54.95-0.58 54.1-1.25 53.92-2.02 53.75-2.8 53.75-3.4 53.75-4 53.8-4.95L53.8-4.95Q53.95-6.55 54.42-8.05 54.9-9.55 54.95-9.75L54.95-9.75Q56.1-13.9 58.22-18.8 60.35-23.7 61.82-26.18 63.3-28.65 64.15-29.55L64.15-29.55Q65.85-31.35 67.5-31.35L67.5-31.35Q68.65-31.35 69.05-29.7L69.05-29.7Q69.1-29.4 69.1-28.95L69.1-28.95Q69.1-27.25 67.9-24.65L67.9-24.65Q63.6-15.1 57.65-9.65L57.65-9.65ZM58.05-11.25Q60.6-13.85 63.1-17.8 65.6-21.75 66.77-24.53 67.95-27.3 67.95-28.3 67.95-29.3 67.6-29.3L67.6-29.3Q67.1-29.3 65.7-27.33 64.3-25.35 61.92-20.23 59.55-15.1 58.05-11.25L58.05-11.25ZM74.6-17.5L74.6-17.5Q78.25-17.5 78.25-12.9L78.25-12.9Q78.25-10.8 77.15-8.4L77.15-8.4Q75.75-5.15 72.95-2.5L72.95-2.5Q73.6-1.25 75.3-1.25L75.3-1.25Q76.65-1.25 77.85-2.6L77.85-2.6Q79.35-4.15 80-5.33 80.65-6.5 80.95-7.05 81.25-7.6 81.72-8.63 82.2-9.65 82.3-9.88 82.4-10.1 82.65-10.1L82.65-10.1Q83.15-10.15 83.15-9.75L83.15-9.75Q83.15-9.6 83.05-9.4L83.05-9.4 82.75-8.7Q82.45-8 82.3-7.7 82.15-7.4 81.77-6.63 81.4-5.85 81.12-5.4 80.85-4.95 80.37-4.2 79.9-3.45 79.52-3 79.15-2.55 78.6-2 78.05-1.45 77.55-1.15L77.55-1.15Q76.3-0.4 75.2-0.4L75.2-0.4Q73.15-0.4 72-1.7L72-1.7Q69.7 0 67.75 0L67.75 0Q64.1 0 64.1-4.6L64.1-4.6Q64.1-6.7 65.2-9.1L65.2-9.1Q66.7-12.6 69.42-15.05 72.15-17.5 74.6-17.5ZM75.15-15.95L75.15-15.95Q73.8-15.95 71.95-14.15 70.1-12.35 68.65-9.25L68.65-9.25Q66.9-5.65 66.9-3.35 66.9-1.05 68.65-1.05L68.65-1.05Q69.9-1.05 71.45-2.4L71.45-2.4Q70.65-3.55 70.65-4.85L70.65-4.85Q70.75-7 72.4-7L72.4-7Q73.05-7 73.47-6.55 73.9-6.1 73.9-5.73 73.9-5.35 73.8-4.95L73.8-4.95Q74.65-6.2 75.75-8.5L75.75-8.5Q77-11.05 77-13.5 77-15.95 75.15-15.95ZM78.79 15.8L78.79 15.8Q74.09 15.8 74.09 11.95L74.09 11.95Q74.09 8.75 78.44 6.2L78.44 6.2Q82.14 4.05 87.89 2.15L87.89 2.15Q90.54 1.3 91.74 0.8L91.74 0.8Q93.04-3 93.04-7.5L93.04-7.5Q93.04-8.4 92.94-8.85L92.94-8.85Q91.54-6 89.09-3L89.09-3Q86.19 0.6 83.34-0.2L83.34-0.2Q80.74-1.3 80.74-4.5L80.74-4.5Q80.74-8.8 85.04-13.95L85.04-13.95Q87.39-16.75 90.54-17.5L90.54-17.5Q91.39-17.75 92.24-17.75L92.24-17.75Q94.49-17.75 96.64-16.25L96.64-16.25Q97.44-15.6 97.44-15.15 97.44-14.7 97.14-14.28 96.84-13.85 96.52-14.18 96.19-14.5 96.09-14.8L96.09-14.8Q95.44-16.65 93.99-16.65L93.99-16.65Q91.34-16.65 88.04-12.95L88.04-12.95Q86.19-10.85 84.84-8.45L84.84-8.45Q83.19-5.45 83.19-3.83 83.19-2.2 84.19-1.65L84.19-1.65Q84.54-1.5 84.89-1.5L84.89-1.5Q86.04-1.5 87.77-3.08 89.49-4.65 90.97-7.08 92.44-9.5 92.84-10.85 93.24-12.2 93.82-12.55 94.39-12.9 95.09-12.95 95.79-13 96.04-13.2L96.04-13.2Q96.44-10.95 96.44-7.93 96.44-4.9 95.39-1.05L95.39-1.05Q97.69-2.7 98.67-4 99.64-5.3 100.22-6.35 100.79-7.4 101.24-8.43 101.69-9.45 101.84-9.75 101.99-10.05 102.34-10.13 102.69-10.2 102.69-9.8L102.69-9.8Q102.69-9.55 102.54-9.2L102.54-9.2Q100.34-4.65 98.87-2.63 97.39-0.6 94.84 0.6L94.84 0.6Q93.64 4 91.37 7.35 89.09 10.7 85.64 13.25 82.19 15.8 78.79 15.8ZM75.14 12.9L75.14 12.9Q75.14 14.8 77.59 14.8L77.59 14.8Q79.04 14.8 80.87 13.95 82.69 13.1 83.89 12.2L83.89 12.2Q85.94 10.55 88.39 7.3L88.39 7.3Q90.24 4.7 91.24 2.25L91.24 2.25 89.49 2.85Q81.69 5.55 78.49 7.65L78.49 7.65Q76.14 9.2 75.39 11.6L75.39 11.6Q75.14 12.35 75.14 12.9ZM104.04-7.7L104.04-7.7Q103.34-6 103.34-3.9L103.34-3.9Q103.34-2.5 103.97-1.68 104.59-0.85 105.74-0.85L105.74-0.85Q110.29-0.85 113.99-9.4L113.99-9.4Q114.34-10.2 114.84-10.1L114.84-10.1Q115.04-10.05 115.04-9.85 115.04-9.65 113.92-7.23 112.79-4.8 111.64-3.3L111.64-3.3Q109.09 0.2 105.34 0.2L105.34 0.2Q103.34 0.2 101.94-1.1 100.54-2.4 100.54-4.65 100.54-6.9 101.62-9.43 102.69-11.95 104.54-14.13 106.39-16.3 108.79-17.3L108.79-17.3Q109.94-17.8 110.99-17.8 112.04-17.8 112.94-17.2L112.94-17.2Q113.79-16.5 113.79-15.65L113.79-15.65Q113.79-12.65 110.19-9.9L110.19-9.9Q109.09-9.05 107.09-8.38 105.09-7.7 104.04-7.7ZM112.44-15.7L112.44-15.7Q112.44-16.7 111.64-16.7L111.64-16.7Q110.24-16.7 107.39-13.25L107.39-13.25Q105.69-11.15 104.39-8.55L104.39-8.55Q105.24-8.55 106.87-9.15 108.49-9.75 109.69-10.75L109.69-10.75Q112.44-13.1 112.44-15.7ZM120.84-20.05L120.84-20.05Q120.84-17.8 117.99-15.8L117.99-15.8Q118.99-15.75 120.66-15.75 122.34-15.75 124.89-16L124.89-16Q124.99-15.85 124.99-15.2 124.99-14.55 124.39-13.28 123.79-12 123.31-11.08 122.84-10.15 122.41-9.33 121.99-8.5 121.46-7.3 120.94-6.1 120.59-5.1L120.59-5.1Q119.34-1.3 120.99-1.3L120.99-1.3Q123.09-1.3 127.19-9.65L127.19-9.65Q127.54-10.3 127.76-10.15 127.99-10 127.99-9.78 127.99-9.55 127.34-8.22 126.69-6.9 125.94-5.5 125.19-4.1 123.59-2.25L123.59-2.25Q121.69 0.05 119.94 0.05L119.94 0.05Q117.99 0.05 117.24-2.3L117.24-2.3Q117.09-2.75 117.09-3.65 117.09-4.55 117.66-6.05 118.24-7.55 119.49-9.7 120.74-11.85 120.89-12.23 121.04-12.6 121.04-12.95L121.04-12.95Q121.04-14.5 117.04-14.6L117.04-14.6 116.44-13Q113.29-4.75 110.39-1.95L110.39-1.95Q109.89-1.5 109.89-2.25L109.89-2.25Q109.89-2.4 109.99-2.6L109.99-2.6Q112.79-6.3 114.84-11.35 116.89-16.4 117.69-20.95L117.69-20.95Q117.99-22.5 119.09-22.5 120.19-22.5 120.69-21.1L120.69-21.1Q120.84-20.65 120.84-20.05Z" opacity="1" transform="matrix(1,0,0,1,0,0)" fill="#000000" class="undefined-text-0" data-fill-palette-color="primary" id="text-0"></path></svg></g></svg></g></svg></g></svg></g><g></g></svg></g><defs></defs></svg><rect width="395.52" height="170.7715764705882" fill="none" stroke="none" visibility="hidden"></rect></g></svg></g></svg>